<svg width="26" height="26" viewBox="0 0 26 26" fill="none" xmlns="http://www.w3.org/2000/svg">
<path d="M13 0.665039C6.1 0.665039 0.5 6.26504 0.5 13.165C0.5 20.065 6.1 25.665 13 25.665C19.9 25.665 25.5 20.065 25.5 13.165C25.5 6.26504 19.9 0.665039 13 0.665039ZM13 5.66504C15.4125 5.66504 17.375 7.62754 17.375 10.04C17.375 12.4525 15.4125 14.415 13 14.415C10.5875 14.415 8.625 12.4525 8.625 10.04C8.625 7.62754 10.5875 5.66504 13 5.66504ZM13 23.165C10.4625 23.165 7.4625 22.14 5.325 19.565C7.51451 17.8472 10.217 16.9135 13 16.9135C15.783 16.9135 18.4855 17.8472 20.675 19.565C18.5375 22.14 15.5375 23.165 13 23.165Z" fill="#FFFEFE"/>
</svg>
