<svg width="30" height="29" viewBox="0 0 30 29" fill="none" xmlns="http://www.w3.org/2000/svg">
<path d="M29.985 9.65779L28.7269 16.8752C28.5717 17.6725 27.9365 18.1572 27.204 18.1663H8.8625L8.49835 20.219H25.979C26.8995 20.2889 27.5238 20.941 27.5351 21.775C27.4681 22.6936 26.8161 23.3196 25.979 23.331H6.64432C5.59865 23.237 4.97512 22.4035 5.08827 21.477L5.91595 16.9744L4.65787 4.32744L1.0823 3.20187C0.208522 2.85494 -0.148103 2.06449 0.0559724 1.24854C0.395297 0.398165 1.20837 0.00964035 2.0093 0.222215L6.5781 1.67894C7.1936 1.90967 7.54767 2.41349 7.63752 3.00324L7.90237 5.51939L28.6275 7.83689C29.5798 8.04317 30.0968 8.79744 29.985 9.65779ZM11.3818 26.5983C11.3818 27.9102 10.3183 28.9737 9.00635 28.9737C7.69442 28.9737 6.63092 27.9102 6.63092 26.5983C6.63092 25.2863 7.69445 24.2228 9.00635 24.2228C10.3183 24.2228 11.3818 25.2864 11.3818 26.5983ZM25.5631 26.5983C25.5631 27.9102 24.4996 28.9737 23.1876 28.9737C21.8757 28.9737 20.8122 27.9102 20.8122 26.5983C20.8122 25.2863 21.8757 24.2228 23.1876 24.2228C24.4996 24.2228 25.5631 25.2864 25.5631 26.5983Z" fill="#FFFEFE"/>
</svg>
