<svg width="25" height="25" viewBox="0 0 25 25" fill="none" xmlns="http://www.w3.org/2000/svg">
<path d="M9.25 18.165C11.4537 18.165 13.4625 17.34 15.0037 15.9913L16.675 19.4913C16.675 19.4913 17.0188 19.7713 17.4913 20.2363C17.975 20.69 18.6112 21.3038 19.2212 21.945L20.9187 23.685L21.6737 24.4925L24.325 21.8413L23.5175 21.0863L21.7775 19.3888C21.1921 18.828 20.6223 18.2511 20.0688 17.6588C19.6038 17.1863 19.3237 16.8425 19.3237 16.8425L15.8237 15.1713C17.2255 13.5813 17.9993 11.5347 18 9.41504C18 4.59129 14.0737 0.665039 9.25 0.665039C4.42625 0.665039 0.5 4.59129 0.5 9.41504C0.5 14.2388 4.42625 18.165 9.25 18.165Z" fill="#FFFEFE"/>
</svg>
